<svg width="300" height="300" viewBox="0 0 300 300" xmlns="http://www.w3.org/2000/svg">
  <!-- Círculo exterior -->
  <circle cx="150" cy="150" r="145" fill="none" stroke="#C2181B" stroke-width="8"/>
  <circle cx="150" cy="150" r="140" fill="none" stroke="#C2181B" stroke-width="1"/>

  <!-- Texto superior -->
  <text x="150" y="80" text-anchor="middle" font-family="Cormorant Garamond, serif" font-size="18" fill="#222222" font-weight="bold">
    PIZZERIA · ROTISERIA
  </text>

  <!-- Toro (símbolo estilizado) -->
  <path d="M100,150 C90,130 110,110 130,115 C140,100 160,100 170,115 C190,110 210,130 200,150 C210,170 190,190 170,185 C160,200 140,200 130,185 C110,190 90,170 100,150 Z" fill="#222222"/>
  <!-- Ojos y cuernos simplificados -->
  <circle cx="125" cy="140" r="3" fill="white"/>
  <path d="M105,130 L95,120" stroke="#222222" stroke-width="2"/>
  <path d="M195,130 L205,120" stroke="#222222" stroke-width="2"/>

  <!-- Estrellas -->
  <text x="80" y="155" font-size="16" fill="#222222">★</text>
  <text x="210" y="155" font-size="16" fill="#222222">★</text>

  <!-- Texto inferior -->
  <text x="150" y="225" text-anchor="middle" font-family="Oswald, sans-serif" font-size="24" fill="#C2181B" font-weight="bold">
    LOS TORITOS
  </text>
</svg>
